<svg xmlns="http://www.w3.org/2000/svg" width="929.92" height="170.383" viewBox="0 0 929.92 170.383"><path fill="#CA0813" d="M204.693 16.375h34.226V99.56h37.98l-6.304 32.1h-65.904V16.374m192.57 0l-6.304 31.645h24.31v83.64h33.857V48.02h18.784l6.302-31.646h-76.95m81.93 0L472.89 48.02h24.31v83.64h33.857V48.02h18.786l6.308-31.646h-76.955M547.27 74.72c0 32.643 26.46 59.102 59.1 59.102 32.646 0 59.105-26.46 59.105-59.102 0-32.64-26.46-59.1-59.104-59.1-32.64 0-59.1 26.46-59.1 59.1zm33.49 0c0-14.145 11.467-25.61 25.61-25.61 14.145 0 25.61 11.466 25.61 25.61 0 14.146-11.466 25.612-25.61 25.612-14.143 0-25.61-11.466-25.61-25.612m-306.147 0c0 32.643 26.46 59.102 59.102 59.102 32.64 0 59.1-26.46 59.1-59.102 0-32.64-26.46-59.1-59.1-59.1s-59.102 26.46-59.102 59.1zm33.492 0c0-14.145 11.465-25.61 25.61-25.61 14.146 0 25.608 11.466 25.608 25.61 0 14.146-11.462 25.612-25.608 25.612-14.144 0-25.61-11.466-25.61-25.612M929.92 34.888c0 10.77-8.65 19.267-19.164 19.267-10.515 0-19.163-8.495-19.163-19.267 0-10.722 8.648-19.268 19.163-19.268 10.514 0 19.164 8.547 19.164 19.268zm-4.35 0c0-8.6-6.632-15.436-14.814-15.436s-14.762 6.837-14.762 15.436c0 8.597 6.58 15.538 14.762 15.538s14.813-6.94 14.813-15.538zm-21.548-10.93h8.03c3.83 0 6.37 2.538 6.37 6.318 0 3.265-2.177 5.905-4.817 5.956.413.363.62.57.88.935 1.244 1.552 5.18 8.39 5.18 8.39h-5.128c-.828-1.452-1.19-2.022-2.02-3.573-2.123-3.885-2.797-4.922-3.575-5.283-.207-.05-.413-.154-.673-.154v9.012h-4.25V23.96zm4.248 3.472v5.853h1.45c1.866 0 2.693-.207 3.263-.726.52-.52.83-1.296.83-2.177 0-1.346-.517-2.277-1.555-2.64-.467-.207-1.4-.31-2.437-.31h-1.55M107.308 77.415c23.07 1.594 45.545-1.048 58.07-9.27 7.388-4.85 7.715-13.262 5.52-24.25-2.883-14.447-14.317-17.274-24.677-11.342-16.033 9.184-29.558 26.467-38.913 44.862m-7.058-.62c12.286-23.176 17.642-48.202 16.833-66.467C116.686 1.336 111.603-.69 103.58.18 78.512 2.9 47.934 18.627 36.294 36.95c-3.222 5.07-5.182 12.157.208 17.506C48.04 65.9 73.913 74.01 100.25 76.796m-3.135 5.598c-25.027-3.496-52.56-4.275-68.364-1.95C3.626 84.148.065 97.477 0 113.788c-.055 14.426 5.808 27.56 24.545 23.634 33.706-7.065 57.53-29.447 72.57-55.026m7.266 1.106c-7.69 16.944-11.753 34.173-10.93 46.375.33 4.825 2 8.972 9.2 8.188 13.87-1.505 37.565-11.804 46.806-24.85 3.725-5.257 4.17-9.82-.735-14.603-6.867-6.694-24.284-11.805-44.34-15.11m-13.85 22.73l-5.78 3.757c-5.655 12.49-24.592 51.162-42.74 52.37l7.65 8.024c12.854-4.424 29.663-37.134 40.87-64.152M802.69 15.21h-28.083v37.44c-2.26-2.257-8.715-6.776-19.207-6.776-24.37 0-40.995 17.592-40.995 46.48 0 23.726 17.593 40.997 38.09 40.997 12.106 0 18.884-6.13 21.79-10.65h.32v8.716h28.085V15.208zm-60.2 74.404c0-8.715 6.94-15.656 15.815-15.656 8.717 0 15.656 6.94 15.656 15.656 0 8.716-6.94 15.655-15.655 15.655-8.875 0-15.815-6.94-15.815-15.656zm146.36 13.58c-6.47 4.29-18.906 7.848-28.18 5.682-3.927-.918-7.72-3.13-8.914-4.403L899.57 84.98c-.794-10.79-2.71-30.962-29.43-37.204-18.703-4.37-45.75 3.565-52.58 32.797-7.894 33.79 17.117 48.75 30.48 51.873 17.286 4.04 30.726-.28 36.453-2.09l4.356-27.16zM844.205 87.13c.053-1.646.07-3.134.4-4.55 2.275-9.744 9.81-13.62 17.354-11.855 2.2.514 7.08 2.316 8.297 4.923l-26.052 11.48zm-176.4 31c0 9.39 7.61 17 17 17s17-7.61 17-17-7.61-17-17-17-17 7.61-17 17z"/></svg>